<?xml version="1.0" encoding="UTF-8" standalone="no"?><svg xmlns="http://www.w3.org/2000/svg" xmlns:xlink= "http://www.w3.org/1999/xlink" width="600" height="390" aria-label="A chart." style="overflow: hidden;"><defs id="_ABSTRACT_RENDERER_ID_50"><clipPath id="_ABSTRACT_RENDERER_ID_51"><rect x="115" y="75" width="371" height="241"></rect></clipPath></defs><rect x="0" y="0" width="600" height="390" stroke="none" stroke-width="0" fill="#ffffff"></rect><g><text text-anchor="start" x="115" y="52.05" font-family="Arial" font-size="13" font-weight="bold" stroke="none" stroke-width="0" fill="#000000">Graph Title</text><rect x="115" y="41" width="371" height="13" stroke="none" stroke-width="0" fill-opacity="0" fill="#ffffff"></rect></g><g><rect x="499" y="75" width="88" height="13" stroke="none" stroke-width="0" fill-opacity="0" fill="#ffffff"></rect><g><rect x="499" y="75" width="88" height="13" stroke="none" stroke-width="0" fill-opacity="0" fill="#ffffff"></rect><g><text text-anchor="start" x="530" y="86.05" font-family="Arial" font-size="13" stroke="none" stroke-width="0" fill="#222222">Line1</text></g><path d="M499,81.5L525,81.5" stroke="#3366cc" stroke-width="3" fill-opacity="1" fill="none"></path><circle cx="512" cy="81.5" r="4.5" stroke="none" stroke-width="0" fill="#3366cc"></circle></g></g><g><rect x="115" y="75" width="371" height="241" stroke="none" stroke-width="0" fill-opacity="0" fill="#ffffff"></rect><g clip-path="url(https://www.rapidtables.com/tools/line-graph.html#_ABSTRACT_RENDERER_ID_51)"><g><rect x="115" y="315" width="371" height="1" stroke="none" stroke-width="0" fill="#cccccc"></rect><rect x="115" y="267" width="371" height="1" stroke="none" stroke-width="0" fill="#cccccc"></rect><rect x="115" y="219" width="371" height="1" stroke="none" stroke-width="0" fill="#cccccc"></rect><rect x="115" y="171" width="371" height="1" stroke="none" stroke-width="0" fill="#cccccc"></rect><rect x="115" y="123" width="371" height="1" stroke="none" stroke-width="0" fill="#cccccc"></rect><rect x="115" y="75" width="371" height="1" stroke="none" stroke-width="0" fill="#cccccc"></rect><rect x="115" y="291" width="371" height="1" stroke="none" stroke-width="0" fill="#ebebeb"></rect><rect x="115" y="243" width="371" height="1" stroke="none" stroke-width="0" fill="#ebebeb"></rect><rect x="115" y="195" width="371" height="1" stroke="none" stroke-width="0" fill="#ebebeb"></rect><rect x="115" y="147" width="371" height="1" stroke="none" stroke-width="0" fill="#ebebeb"></rect><rect x="115" y="99" width="371" height="1" stroke="none" stroke-width="0" fill="#ebebeb"></rect></g><g><rect x="115" y="315" width="371" height="1" stroke="none" stroke-width="0" fill="#333333"></rect></g><g><path d="M161.75,171.5L254.25,75.5L346.75,267.5L439.25,219.5" stroke="#3366cc" stroke-width="3" fill-opacity="1" fill="none"></path></g></g><g><circle cx="161.75" cy="171.5" r="4.5" stroke="none" stroke-width="0" fill="#3366cc"></circle><circle cx="254.25" cy="75.5" r="4.5" stroke="none" stroke-width="0" fill="#3366cc"></circle><circle cx="346.75" cy="267.5" r="4.5" stroke="none" stroke-width="0" fill="#3366cc"></circle><circle cx="439.25" cy="219.5" r="4.5" stroke="none" stroke-width="0" fill="#3366cc"></circle></g><g><g><text text-anchor="middle" x="161.75" y="335.05" font-family="Arial" font-size="13" stroke="none" stroke-width="0" fill="#222222">name 1</text></g><g><text text-anchor="middle" x="254.25" y="335.05" font-family="Arial" font-size="13" stroke="none" stroke-width="0" fill="#222222">name 2</text></g><g><text text-anchor="middle" x="346.75" y="335.05" font-family="Arial" font-size="13" stroke="none" stroke-width="0" fill="#222222">name 3</text></g><g><text text-anchor="middle" x="439.25" y="335.05" font-family="Arial" font-size="13" stroke="none" stroke-width="0" fill="#222222">name 4</text></g><g><text text-anchor="end" x="102" y="320.05" font-family="Arial" font-size="13" stroke="none" stroke-width="0" fill="#444444">0</text></g><g><text text-anchor="end" x="102" y="272.05" font-family="Arial" font-size="13" stroke="none" stroke-width="0" fill="#444444">100</text></g><g><text text-anchor="end" x="102" y="224.05" font-family="Arial" font-size="13" stroke="none" stroke-width="0" fill="#444444">200</text></g><g><text text-anchor="end" x="102" y="176.05" font-family="Arial" font-size="13" stroke="none" stroke-width="0" fill="#444444">300</text></g><g><text text-anchor="end" x="102" y="128.05" font-family="Arial" font-size="13" stroke="none" stroke-width="0" fill="#444444">400</text></g><g><text text-anchor="end" x="102" y="80.05" font-family="Arial" font-size="13" stroke="none" stroke-width="0" fill="#444444">500</text></g></g></g><g><g><text text-anchor="middle" x="300.5" y="368.05" font-family="Arial" font-size="13" font-style="italic" stroke="none" stroke-width="0" fill="#222222">hLabel</text><rect x="115" y="357" width="371" height="13" stroke="none" stroke-width="0" fill-opacity="0" fill="#ffffff"></rect></g><g><text text-anchor="middle" x="44.55" y="195.5" font-family="Arial" font-size="13" font-style="italic" transform="rotate(-90 44.55 195.5)" stroke="none" stroke-width="0" fill="#222222">vLabel</text><path d="M33.49999999999999,316L33.50000000000001,75L46.50000000000001,75L46.49999999999999,316Z" stroke="none" stroke-width="0" fill-opacity="0" fill="#ffffff"></path></g></g><g></g></svg>