<?xml version="1.0" encoding="UTF-8" standalone="no"?><svg xmlns="http://www.w3.org/2000/svg" xmlns:xlink= "http://www.w3.org/1999/xlink" width="600" height="390" aria-label="A chart." style="overflow: hidden;"><defs id="_ABSTRACT_RENDERER_ID_54"><clipPath id="_ABSTRACT_RENDERER_ID_55"><rect x="115" y="75" width="371" height="241"></rect></clipPath></defs><rect x="0" y="0" width="600" height="390" stroke="none" stroke-width="0" fill="#ffffff"></rect><g><text text-anchor="start" x="115" y="52.05" font-family="Arial" font-size="13" font-weight="bold" stroke="none" stroke-width="0" fill="#000000">Graph Title</text><rect x="115" y="41" width="371" height="13" stroke="none" stroke-width="0" fill-opacity="0" fill="#ffffff"></rect></g><g><rect x="499" y="75" width="88" height="68" stroke="none" stroke-width="0" fill-opacity="0" fill="#ffffff"></rect><g><rect x="499" y="75" width="88" height="13" stroke="none" stroke-width="0" fill-opacity="0" fill="#ffffff"></rect><g><text text-anchor="start" x="530" y="86.05" font-family="Arial" font-size="13" stroke="none" stroke-width="0" fill="#222222">Series1</text></g><path d="M499,81.5L525,81.5" stroke="none" stroke-width="0" fill-opacity="1" fill="none"></path><circle cx="512" cy="81.5" r="4.5" stroke="none" stroke-width="0" fill="#3366cc"></circle></g><g column-id="_trendline"><rect x="499" y="96" width="88" height="47" stroke="none" stroke-width="0" fill-opacity="0" fill="#ffffff"></rect><g><text text-anchor="start" x="530" y="107.05" font-family="Arial" font-size="13" stroke="none" stroke-width="0" fill="#222222">Series1 =</text><text text-anchor="start" x="530" y="124.05" font-family="Arial" font-size="13" stroke="none" stroke-width="0" fill="#222222">-2 * x +</text><text text-anchor="start" x="530" y="141.05" font-family="Arial" font-size="13" stroke="none" stroke-width="0" fill="#222222">11.333</text></g><path d="M499,102.5L525,102.5" stroke="#3366cc" stroke-width="2" stroke-opacity="0.5" fill-opacity="1" fill="none"></path></g></g><g><rect x="115" y="75" width="371" height="241" stroke="none" stroke-width="0" fill-opacity="0" fill="#ffffff"></rect><g clip-path="url(https://www.rapidtables.com/tools/scatter-plot.html#_ABSTRACT_RENDERER_ID_55)"><g><rect x="115" y="75" width="1" height="241" stroke="none" stroke-width="0" fill="#cccccc"></rect><rect x="208" y="75" width="1" height="241" stroke="none" stroke-width="0" fill="#cccccc"></rect><rect x="300" y="75" width="1" height="241" stroke="none" stroke-width="0" fill="#cccccc"></rect><rect x="393" y="75" width="1" height="241" stroke="none" stroke-width="0" fill="#cccccc"></rect><rect x="485" y="75" width="1" height="241" stroke="none" stroke-width="0" fill="#cccccc"></rect><rect x="161" y="75" width="1" height="241" stroke="none" stroke-width="0" fill="#ebebeb"></rect><rect x="254" y="75" width="1" height="241" stroke="none" stroke-width="0" fill="#ebebeb"></rect><rect x="346" y="75" width="1" height="241" stroke="none" stroke-width="0" fill="#ebebeb"></rect><rect x="439" y="75" width="1" height="241" stroke="none" stroke-width="0" fill="#ebebeb"></rect><rect x="115" y="315" width="371" height="1" stroke="none" stroke-width="0" fill="#cccccc"></rect><rect x="115" y="255" width="371" height="1" stroke="none" stroke-width="0" fill="#cccccc"></rect><rect x="115" y="195" width="371" height="1" stroke="none" stroke-width="0" fill="#cccccc"></rect><rect x="115" y="135" width="371" height="1" stroke="none" stroke-width="0" fill="#cccccc"></rect><rect x="115" y="75" width="371" height="1" stroke="none" stroke-width="0" fill="#cccccc"></rect><rect x="115" y="285" width="371" height="1" stroke="none" stroke-width="0" fill="#ebebeb"></rect><rect x="115" y="225" width="371" height="1" stroke="none" stroke-width="0" fill="#ebebeb"></rect><rect x="115" y="165" width="371" height="1" stroke="none" stroke-width="0" fill="#ebebeb"></rect><rect x="115" y="105" width="371" height="1" stroke="none" stroke-width="0" fill="#ebebeb"></rect></g><g><rect x="115" y="315" width="371" height="1" stroke="none" stroke-width="0" fill="#333333"></rect></g><g><path d="M115.5,95.50000000001L119.19999999999999,96.70000000001L122.90000000000003,97.90000000001001L126.60000000000002,99.10000000001L130.3,100.30000000001002L134,101.50000000001L137.70000000000005,102.70000000001L141.40000000000003,103.90000000001001L145.10000000000002,105.10000000001L148.8,106.30000000001002L152.50000000000006,107.50000000001L156.20000000000005,108.70000000001002L159.90000000000003,109.90000000000998L163.59999999999997,111.10000000001L167.29999999999995,112.30000000000999L170.99999999999994,113.50000000001L174.7,114.70000000001L178.39999999999998,115.90000000000998L182.09999999999997,117.10000000001L185.79999999999995,118.30000000000999L189.5,119.50000000001L193.2,120.70000000001L196.89999999999998,121.90000000001001L200.59999999999997,123.10000000001L204.3,124.30000000000999L208,125.50000000001L211.7,126.70000000001L215.40000000000003,127.90000000001001L219.10000000000002,129.10000000001L222.8,130.30000000001002L226.5,131.50000000001L230.20000000000005,132.70000000001L233.90000000000003,133.90000000001L237.60000000000002,135.10000000001L241.3,136.30000000001002L245.00000000000006,137.50000000001L248.70000000000005,138.70000000001002L252.40000000000003,139.90000000000998L256.09999999999997,141.10000000001L259.79999999999995,142.30000000001L263.5,143.50000000001L267.19999999999993,144.70000000001L270.9,145.90000000000998L274.6,147.10000000001L278.29999999999995,148.30000000001L282,149.50000000001L285.69999999999993,150.70000000001L289.4,151.90000000001L293.1,153.10000000001L296.79999999999995,154.30000000001L300.5,155.50000000001L304.20000000000005,156.70000000001L307.9,157.90000000001L311.6,159.10000000001L315.30000000000007,160.30000000001002L319,161.50000000001L322.70000000000005,162.70000000001L326.4,163.90000000001L330.1,165.10000000001L333.80000000000007,166.30000000001002L337.5,167.50000000001L341.20000000000005,168.70000000001002L344.9000000000001,169.90000000000998L348.5999999999999,171.10000000001L352.29999999999995,172.30000000001L356,173.50000000001L359.69999999999993,174.70000000001L363.4,175.90000000000998L367.1,177.10000000001L370.79999999999995,178.30000000001L374.5,179.50000000001L378.19999999999993,180.70000000001L381.9,181.90000000001L385.6,183.10000000001L389.29999999999995,184.30000000001L393,185.50000000001L396.70000000000005,186.70000000001L400.4,187.90000000001L404.1,189.10000000001L407.80000000000007,190.30000000001002L411.5,191.50000000001L415.20000000000005,192.70000000001L418.9,193.90000000001L422.6,195.10000000001003L426.30000000000007,196.30000000001002L430,197.50000000001L433.70000000000005,198.70000000001L437.4000000000001,199.90000000000998L441.0999999999999,201.10000000001L444.79999999999995,202.30000000001002L448.5,203.50000000001L452.19999999999993,204.70000000001L455.9,205.90000000001L459.6,207.10000000001L463.29999999999995,208.30000000001L467,209.50000000001L470.69999999999993,210.70000000001L474.4,211.90000000000998L478.1,213.10000000001L481.79999999999995,214.30000000001002L485.5,215.50000000001" stroke="#3366cc" stroke-width="2" stroke-opacity="0.5" fill-opacity="1" fill="none"></path></g></g><g><circle cx="115.5" cy="105.5" r="4.5" stroke="none" stroke-width="0" fill="#3366cc"></circle><circle cx="300.5" cy="135.5" r="4.5" stroke="none" stroke-width="0" fill="#3366cc"></circle><circle cx="485.5" cy="225.5" r="4.5" stroke="none" stroke-width="0" fill="#3366cc"></circle></g><g><g><text text-anchor="middle" x="115.5" y="335.05" font-family="Arial" font-size="13" stroke="none" stroke-width="0" fill="#444444">2</text></g><g><text text-anchor="middle" x="208" y="335.05" font-family="Arial" font-size="13" stroke="none" stroke-width="0" fill="#444444">2.5</text></g><g><text text-anchor="middle" x="300.5" y="335.05" font-family="Arial" font-size="13" stroke="none" stroke-width="0" fill="#444444">3</text></g><g><text text-anchor="middle" x="393" y="335.05" font-family="Arial" font-size="13" stroke="none" stroke-width="0" fill="#444444">3.5</text></g><g><text text-anchor="middle" x="485.5" y="335.05" font-family="Arial" font-size="13" stroke="none" stroke-width="0" fill="#444444">4</text></g><g><text text-anchor="end" x="102" y="320.05" font-family="Arial" font-size="13" stroke="none" stroke-width="0" fill="#444444">0</text></g><g><text text-anchor="end" x="102" y="260.05" font-family="Arial" font-size="13" stroke="none" stroke-width="0" fill="#444444">2</text></g><g><text text-anchor="end" x="102" y="200.05" font-family="Arial" font-size="13" stroke="none" stroke-width="0" fill="#444444">4</text></g><g><text text-anchor="end" x="102" y="140.05" font-family="Arial" font-size="13" stroke="none" stroke-width="0" fill="#444444">6</text></g><g><text text-anchor="end" x="102" y="80.05" font-family="Arial" font-size="13" stroke="none" stroke-width="0" fill="#444444">8</text></g></g></g><g><g><text text-anchor="middle" x="300.5" y="368.05" font-family="Arial" font-size="13" font-style="italic" stroke="none" stroke-width="0" fill="#222222">hLabel</text><rect x="115" y="357" width="371" height="13" stroke="none" stroke-width="0" fill-opacity="0" fill="#ffffff"></rect></g><g><text text-anchor="middle" x="52.05" y="195.5" font-family="Arial" font-size="13" font-style="italic" transform="rotate(-90 52.05 195.5)" stroke="none" stroke-width="0" fill="#222222">vLabel</text><path d="M40.99999999999999,316L41.00000000000001,75L54.00000000000001,75L53.99999999999999,316Z" stroke="none" stroke-width="0" fill-opacity="0" fill="#ffffff"></path></g></g><g></g></svg>